<svg xmlns="http://www.w3.org/2000/svg" version="1.1" xmlns:xlink="http://www.w3.org/1999/xlink" xmlns:svgjs="http://svgjs.dev/svgjs" width="1000" height="623" viewBox="0 0 1000 623"><g transform="matrix(1,0,0,1,-0.6060606060606233,0.2522267206477409)"><svg viewBox="0 0 396 247" data-background-color="#141414" preserveAspectRatio="xMidYMid meet" height="623" width="1000" xmlns="http://www.w3.org/2000/svg" xmlns:xlink="http://www.w3.org/1999/xlink"><defs></defs><g id="tight-bounds" transform="matrix(1,0,0,1,0.2400000000000091,-0.09999999999999432)"><svg viewBox="0 0 395.52 247.2" height="247.2" width="395.52"><g><svg></svg></g><g><svg viewBox="0 0 395.52 247.2" height="247.2" width="395.52"><g transform="matrix(3.398946521687723, 0, 0, 3.398946521687723, 75.17698539712299, 0.9999999999999858)"><svg xmlns="http://www.w3.org/2000/svg" xmlns:xlink="http://www.w3.org/1999/xlink" version="1.1" x="0" y="0" viewBox="5.076000213623047 6.513999938964844 72.1300048828125 72.13999938964844" enable-background="new 0 0 82 84.667" xml:space="preserve" height="72.13999938964844" width="72.1300048828125" class="icon-none" data-fill-palette-color="accent" id="none"><path d="M41.137 6.514c-19.881 0-36.061 16.18-36.061 36.07 0 19.891 16.18 36.07 36.061 36.07 19.899 0 36.069-16.18 36.069-36.07C77.207 22.693 61.037 6.514 41.137 6.514zM41.137 74.064c-17.351 0-31.471-14.121-31.471-31.48 0-17.36 14.12-31.48 31.471-31.48 17.359 0 31.479 14.12 31.479 31.48C72.617 59.943 58.497 74.064 41.137 74.064z" fill="#c63232" data-fill-palette-color="accent"></path><path d="M41.137 15.034c-15.191 0-27.541 12.36-27.541 27.55 0 15.189 12.35 27.55 27.541 27.55 15.199 0 27.549-12.36 27.549-27.55C68.686 27.394 56.336 15.034 41.137 15.034zM41.137 69.324c-14.74 0-26.74-11.99-26.74-26.74s12-26.74 26.74-26.74c14.749 0 26.749 11.99 26.749 26.74S55.886 69.324 41.137 69.324z" fill="#c63232" data-fill-palette-color="accent"></path><path d="M41.137 17.474c-13.841 0-25.101 11.27-25.101 25.11 0 13.85 11.26 25.109 25.101 25.109 13.85 0 25.119-11.26 25.119-25.109C66.256 28.744 54.987 17.474 41.137 17.474zM41.137 65.314c-12.521 0-22.721-10.201-22.721-22.73 0-12.53 10.2-22.73 22.721-22.73 12.539 0 22.729 10.2 22.729 22.73C63.867 55.113 53.676 65.314 41.137 65.314z" fill="#c63232" data-fill-palette-color="accent"></path><path d="M39.266 24.954h-0.01c-0.14 0-0.27 0.01-0.4 0.05-7.959 1.02-14.279 7.34-15.289 15.31-0.03 0.12-0.041 0.25-0.041 0.38 0 1.04 0.851 1.89 1.891 1.89h5.529c0.91 0 1.66-0.65 1.841-1.5v-0.01c0.62-3.4 3.25-6.09 6.62-6.79 0.01 0.01 0.02 0 0.02 0 0.1-0.02 0.211-0.04 0.311-0.05 0.81-0.21 1.4-0.95 1.4-1.82v-5.58C41.137 25.793 40.307 24.963 39.266 24.954z" fill="#c63232" data-fill-palette-color="accent"></path><circle cx="41.141" cy="42.583" r="6.2" fill="#c63232" data-fill-palette-color="accent"></circle><circle cx="49.686" cy="50.992" r="1.7" fill="#c63232" data-fill-palette-color="accent"></circle><circle cx="55.135" cy="55.771" r="1.0" fill="#c63232" data-fill-palette-color="accent"></circle></svg></g><rect width="348.05760000000004" height="144.91505850991302" fill="#141414" y="51.14247074504348" x="23.731199999999973" data-fill-palette-color="quaternary"></rect><g transform="matrix(1,0,0,1,39.55199999999999,74.38121739130435)"><svg viewBox="0 0 316.416 98.4375652173913" height="98.4375652173913" width="316.416"><g><svg viewBox="0 0 316.416 98.4375652173913" height="98.4375652173913" width="316.416"><g><svg viewBox="0 0 316.416 98.4375652173913" height="98.4375652173913" width="316.416"><g><svg viewBox="0 0 316.416 98.4375652173913" height="98.4375652173913" width="316.416"><g><svg viewBox="0 0 316.416 98.4375652173913" height="98.4375652173913" width="316.416"><g transform="matrix(1,0,0,1,0,0)"><svg width="316.416" viewBox="1.2699999809265137 -35.9900016784668 115.67000579833984 35.9900016784668" height="98.4375652173913" data-palette-color="#ffffff"><g class="undefined-text-0" data-fill-palette-color="primary" id="text-0"><path d="M49.37 0Q49.56-0.24 49.56-0.83 49.56-1.42 49.56-1.71L49.56-1.71Q49.56-4.74 49.24-7.76 48.93-10.79 48.54-13.77L48.54-13.77Q48.24-16.5 47.88-19.43 47.51-22.36 46.97-25L46.97-25Q44.48-21.48 42.31-17.82 40.14-14.16 37.94-10.45L37.94-10.45 35.45-6.15Q35.06-5.52 34.69-4.86 34.33-4.2 33.89-3.61L33.89-3.61Q32.86-3.56 31.84-3.56 30.81-3.56 29.79-3.56L29.79-3.56Q28.76-3.56 27.71-3.54 26.66-3.52 25.63-3.61L25.63-3.61Q25.24-4.2 24.88-4.86 24.51-5.52 24.12-6.2L24.12-6.2 21.58-10.5Q19.38-14.16 17.21-17.82 15.04-21.48 12.55-25L12.55-25Q12.01-22.36 11.67-19.43 11.33-16.5 10.99-13.77L10.99-13.77Q10.6-10.79 10.28-7.76 9.96-4.74 9.96-1.71L9.96-1.71Q9.96-1.42 9.96-0.83 9.96-0.24 10.21 0L10.21 0 1.27 0Q1.56-0.29 1.86-1.49 2.15-2.69 2.42-4.35 2.69-6.01 2.91-7.91 3.13-9.81 3.3-11.55 3.47-13.28 3.59-14.6 3.71-15.92 3.76-16.41L3.76-16.41Q4.1-20.21 4.52-24.12 4.93-28.03 4.93-31.84L4.93-31.84Q4.93-32.13 4.93-32.79 4.93-33.45 4.83-34.11 4.74-34.77 4.52-35.3 4.3-35.84 3.91-35.99L3.91-35.99 15.82-35.99Q15.58-35.84 15.58-35.5L15.58-35.5Q15.58-34.62 16.46-32.67 17.33-30.71 18.7-28.2 20.07-25.68 21.75-22.92 23.44-20.17 25-17.65 26.56-15.14 27.86-13.13 29.15-11.13 29.79-10.21L29.79-10.21Q30.37-11.13 31.67-13.13 32.96-15.14 34.55-17.65 36.13-20.17 37.79-22.95 39.45-25.73 40.82-28.22 42.19-30.71 43.07-32.67 43.95-34.62 43.95-35.5L43.95-35.5Q43.95-35.84 43.75-35.99L43.75-35.99 55.66-35.99Q55.22-35.84 55-35.3 54.79-34.77 54.69-34.11 54.59-33.45 54.59-32.79 54.59-32.13 54.59-31.84L54.59-31.84Q54.59-28.03 55-24.12 55.42-20.21 55.81-16.41L55.81-16.41Q55.86-15.92 55.96-14.6 56.05-13.28 56.23-11.55 56.4-9.81 56.62-7.91 56.84-6.01 57.1-4.35 57.37-2.69 57.67-1.49 57.96-0.29 58.3 0L58.3 0 49.37 0ZM62.6 0Q62.89-0.29 63.08-1.88 63.28-3.47 63.4-5.71 63.52-7.96 63.55-10.6 63.57-13.23 63.57-15.63 63.57-18.02 63.55-19.85 63.52-21.68 63.52-22.41L63.52-22.41Q63.52-22.85 63.55-23.97 63.57-25.1 63.55-26.56 63.52-28.03 63.45-29.64 63.38-31.25 63.18-32.62 62.99-33.98 62.64-34.91 62.3-35.84 61.81-35.99L61.81-35.99 72.75-35.99Q72.12-35.99 71.7-34.86 71.29-33.74 71.04-32.03 70.8-30.32 70.68-28.25 70.55-26.17 70.51-24.27 70.46-22.36 70.46-20.87 70.46-19.38 70.46-18.85L70.46-18.85Q70.46-15.97 70.43-13.11 70.41-10.25 70.41-7.32L70.41-7.32Q70.41-6.93 70.41-5.81 70.41-4.69 70.46-3.49 70.51-2.29 70.68-1.27 70.85-0.24 71.14 0L71.14 0 62.6 0ZM116.94 0L107.76 0Q107.81-0.05 107.81-0.2L107.81-0.2Q107.81-0.54 107.54-1.34 107.27-2.15 106.95-3.05 106.64-3.96 106.29-4.76 105.95-5.57 105.81-5.91L105.81-5.91Q100.63-6.1 95.43-6.05 90.23-6.01 85.05-5.81L85.05-5.81Q84.91-5.47 84.57-4.66 84.22-3.86 83.91-2.98 83.59-2.1 83.32-1.32 83.05-0.54 83.05-0.2L83.05-0.2Q83.05-0.05 83.1 0L83.1 0 73.97 0Q74.26-0.34 74.68-1.1 75.09-1.86 75.51-2.71 75.92-3.56 76.31-4.37 76.7-5.18 76.9-5.62L76.9-5.62Q77.44-6.69 78.61-9.08 79.78-11.47 81.22-14.53 82.66-17.58 84.2-20.92 85.74-24.27 87.01-27.25 88.28-30.22 89.08-32.47 89.89-34.72 89.89-35.55L89.89-35.55Q89.89-35.64 89.86-35.77 89.84-35.89 89.74-35.89L89.74-35.89 101.17-35.89Q101.07-35.89 101.04-35.77 101.02-35.64 101.02-35.55L101.02-35.55Q101.02-34.72 101.83-32.47 102.63-30.22 103.9-27.25 105.17-24.27 106.71-20.92 108.25-17.58 109.69-14.53 111.13-11.47 112.28-9.08 113.42-6.69 113.96-5.62L113.96-5.62Q114.16-5.18 114.55-4.37 114.94-3.56 115.38-2.71 115.82-1.86 116.23-1.1 116.65-0.34 116.94 0L116.94 0ZM87.06-10.45L89.11-10.4Q96.38-10.4 103.71-10.69L103.71-10.69Q101.7-15.14 99.73-19.48 97.75-23.83 95.45-28.08L95.45-28.08Q93.11-23.78 91.11-19.34 89.11-14.89 87.06-10.45L87.06-10.45Z" fill="#ffffff" data-fill-palette-color="primary"></path></g></svg></g></svg></g></svg></g></svg></g></svg></g></svg></g></svg></g></svg><rect width="395.52" height="247.2" fill="none" stroke="none" visibility="hidden"></rect></g></svg></g></svg>